<?xml version="1.0" encoding="utf-8"?>
<!-- Generator: Adobe Illustrator 23.0.2, SVG Export Plug-In . SVG Version: 6.00 Build 0)  -->
<svg version="1.1" id="Layer_1" focusable="false" xmlns="http://www.w3.org/2000/svg" xmlns:xlink="http://www.w3.org/1999/xlink"
	 x="0px" y="0px" viewBox="0 0 576 512" style="enable-background:new 0 0 576 512;" xml:space="preserve">
<style type="text/css">
	.st0{fill:#000000;}
</style>
<g>
	<g>
		<path class="st0" d="M91.5,448h54.6c7.5,0,13.7-6.1,13.7-13.7V195.5c0-7.5-6.1-13.7-13.7-13.7H91.5c-7.5,0-13.7,6.1-13.7,13.7
			v238.9C77.8,441.9,83.9,448,91.5,448z"/>
		<path class="st0" d="M91.5,139.8h54.6c7.5,0,13.7-6.1,13.7-13.7V77.7c0-7.5-6.1-13.7-13.7-13.7H91.5c-7.5,0-13.7,6.1-13.7,13.7
			v48.5C77.8,133.7,83.9,139.8,91.5,139.8z"/>
		<path class="st0" d="M477.6,209.5c-7.7-10.1-19-18.4-34-24.9c-15-6.5-31.5-9.8-49.6-9.8c-36.7,0-67.8,14-93.3,42
			c-5.1,5.6-8.8,4.4-8.8-3.2v-18.2c0-7.5-6.1-13.7-13.7-13.7h-48.8c-7.5,0-13.7,6.1-13.7,13.7v238.9c0,7.5,6.1,13.7,13.7,13.7h54.6
			c7.5,0,13.7-6.1,13.7-13.7v-83.1c0-34.6,2.1-58.3,6.3-71.2c4.2-12.8,11.9-23.1,23.2-30.9c11.3-7.8,24-11.7,38.2-11.7
			c11.1,0,20.6,2.7,28.4,8.2c7.9,5.4,13.6,13.1,17.1,22.9c3.5,9.8,5.3,31.4,5.3,64.9v100.9c0,7.5,6.1,13.7,13.7,13.7h54.6
			c7.5,0,13.6-6.1,13.6-13.7V299.1c0-23.9-1.5-42.3-4.5-55.1C490.7,231.1,485.3,219.6,477.6,209.5z"/>
	</g>
</g>
</svg>
